<svg width="188" height="257" viewBox="0 0 188 257" fill="none" xmlns="http://www.w3.org/2000/svg">
<g filter="url(#filter0_d_126_7710)">
<g clip-path="url(#clip0_126_7710)">
<rect x="18.668" y="18.668" width="150.284" height="219.358" rx="13.0682" fill="#F6F6F6"/>
<path d="M171.266 218.871C171.318 217.093 171.787 191.676 156.746 175.131C156.077 173.652 152.907 167.691 142.677 160.406C138.141 156.889 133.324 153.75 128.274 151.021L128.254 151.011C127.615 150.67 115.14 144.07 99.9989 144.07C98.8492 144.07 97.7119 144.138 96.5871 144.215V144.195C85.0422 143.943 73.5746 146.914 66.6636 150.034C60.5333 152.802 53.7271 157.443 53.2357 157.802C44.746 162.551 28.647 181.608 27.3726 191.706C22.2274 198.283 17.9277 227.825 27.3826 245.819C34.0117 270.827 58.967 283.342 60.9523 284.302C62.1594 285.073 75.7594 293.48 92.4669 293.48C93.1678 293.48 97.4051 293.715 98.9165 293.715C116.976 293.715 143.737 280.985 149.338 271.014C164.729 259.756 172.708 230.743 171.266 218.871ZM61.0895 256.439C53.9341 244.864 49.8563 229.74 48.9834 226.266C51.248 222.872 62.4188 206.401 68.7836 201.446C72.3874 202.109 87.4365 204.872 101.63 207.441C103.413 212.063 111.237 232.454 113.477 240.325C111.008 243.253 101.308 254.546 91.7586 263.39C81.6204 263.437 64.3766 257.589 61.0895 256.439ZM151.039 175.445C151.009 176.568 150.743 180.558 148.832 185.14C145.039 183.202 135.504 179.052 122.435 178.351C120.457 175.43 113.015 165.247 101.261 158.184C102.87 155.037 105.109 151.198 106.419 150.029C106.843 149.909 107.501 149.799 108.504 149.799C114.806 149.799 125.695 153.927 126.643 154.293C127.648 154.825 147.221 165.364 151.039 175.445ZM46.1627 223.909C37.6256 222.453 32.5502 219.799 31.0338 218.901C27.8589 207.386 30.4153 194.941 30.8094 193.158C33.9419 187.556 42.8606 173.278 48.744 170.567C54.8419 169.322 62.4462 170.869 65.5438 171.624C65.252 175.652 64.6909 186.905 66.3569 198.715C59.608 204.147 48.9261 219.782 46.1627 223.909ZM95.8239 147.886C97.7393 148.028 100.55 148.447 102.475 149.018C100.555 151.572 98.5873 155.358 97.657 157.229C93.7414 157.87 78.8694 160.713 67.2023 168.277C64.8505 167.654 57.7475 165.99 51.021 166.564C52.6871 163.339 55.1761 160.955 55.443 160.711C56.3683 160.047 74.1807 147.584 95.8239 147.854V147.886ZM143.45 242.891C140.532 242.772 129.289 242.131 116.961 239.235C114.599 231 106.8 210.693 105.017 206.075C110.691 197.988 116.451 189.961 122.296 181.997C136.482 182.775 146.443 187.95 148.371 189.03C156.589 202.246 158.392 215.744 158.639 217.999C154.274 231.581 145.642 240.727 143.45 242.891ZM25.9161 210.21C26.1256 213.367 26.6319 216.692 27.5472 219.979C26.7235 222.109 26.1526 224.328 25.8462 226.59C25.3247 221.141 25.3481 215.654 25.9161 210.21ZM49.9686 268.468C53.7296 264.844 58.366 261.317 60.1642 259.986C64.2295 261.417 80.9245 267.061 91.5666 267.061C93.3797 269.493 99.3081 277.107 106.576 282.928C102.051 287.355 95.5171 289.445 94.3624 289.792C74.0934 290.336 54.3531 278.943 49.9686 268.468ZM103.498 289.762C105.798 288.423 108.194 286.659 110.177 284.427C113.412 283.981 127.294 281.591 139.839 272.376C140.667 272.466 142.031 272.575 143.555 272.533C136.028 279.908 117.662 288.146 103.498 289.762ZM141.966 268.872C146.473 257.13 146.281 248.276 146.059 245.448C148.533 243.024 157.023 233.978 161.734 220.226C164.273 220.65 165.924 221.296 166.707 221.657C166.979 222.655 167.433 224.959 167.176 228.454C165.255 241.031 158.626 259.878 147.014 268.211C145.847 268.807 143.792 268.937 141.966 268.872Z" fill="#D9D9D9"/>
<mask id="mask0_126_7710" style="mask-type:alpha" maskUnits="userSpaceOnUse" x="126" y="34" width="25" height="25">
<rect x="126.262" y="34.9492" width="24" height="24" fill="#D9D9D9"/>
</mask>
<g mask="url(#mask0_126_7710)">
<path d="M138.974 51.6617C139.166 51.4701 139.262 51.2326 139.262 50.9492V46.9492C139.262 46.6659 139.166 46.4284 138.974 46.2367C138.783 46.0451 138.545 45.9492 138.262 45.9492C137.978 45.9492 137.741 46.0451 137.549 46.2367C137.358 46.4284 137.262 46.6659 137.262 46.9492V50.9492C137.262 51.2326 137.358 51.4701 137.549 51.6617C137.741 51.8534 137.978 51.9492 138.262 51.9492C138.545 51.9492 138.783 51.8534 138.974 51.6617ZM138.974 43.6617C139.166 43.4701 139.262 43.2326 139.262 42.9492C139.262 42.6659 139.166 42.4284 138.974 42.2367C138.783 42.0451 138.545 41.9492 138.262 41.9492C137.978 41.9492 137.741 42.0451 137.549 42.2367C137.358 42.4284 137.262 42.6659 137.262 42.9492C137.262 43.2326 137.358 43.4701 137.549 43.6617C137.741 43.8534 137.978 43.9492 138.262 43.9492C138.545 43.9492 138.783 43.8534 138.974 43.6617ZM138.262 56.9492C136.878 56.9492 135.578 56.6867 134.362 56.1617C133.145 55.6367 132.087 54.9242 131.187 54.0242C130.287 53.1242 129.574 52.0659 129.049 50.8492C128.524 49.6326 128.262 48.3326 128.262 46.9492C128.262 45.5659 128.524 44.2659 129.049 43.0492C129.574 41.8326 130.287 40.7742 131.187 39.8742C132.087 38.9742 133.145 38.2617 134.362 37.7367C135.578 37.2117 136.878 36.9492 138.262 36.9492C139.645 36.9492 140.945 37.2117 142.162 37.7367C143.378 38.2617 144.437 38.9742 145.337 39.8742C146.237 40.7742 146.949 41.8326 147.474 43.0492C147.999 44.2659 148.262 45.5659 148.262 46.9492C148.262 48.3326 147.999 49.6326 147.474 50.8492C146.949 52.0659 146.237 53.1242 145.337 54.0242C144.437 54.9242 143.378 55.6367 142.162 56.1617C140.945 56.6867 139.645 56.9492 138.262 56.9492ZM138.262 54.9492C140.495 54.9492 142.387 54.1742 143.937 52.6242C145.487 51.0742 146.262 49.1826 146.262 46.9492C146.262 44.7159 145.487 42.8242 143.937 41.2742C142.387 39.7242 140.495 38.9492 138.262 38.9492C136.028 38.9492 134.137 39.7242 132.587 41.2742C131.037 42.8242 130.262 44.7159 130.262 46.9492C130.262 49.1826 131.037 51.0742 132.587 52.6242C134.137 54.1742 136.028 54.9492 138.262 54.9492Z" fill="black" fill-opacity="0.2"/>
</g>
</g>
<rect x="23.3352" y="23.3352" width="140.949" height="210.024" rx="8.40096" stroke="#D9D9D9" stroke-width="9.3344"/>
</g>
<defs>
<filter id="filter0_d_126_7710" x="-0.000837326" y="-0.000837326" width="187.621" height="256.697" filterUnits="userSpaceOnUse" color-interpolation-filters="sRGB">
<feFlood flood-opacity="0" result="BackgroundImageFix"/>
<feColorMatrix in="SourceAlpha" type="matrix" values="0 0 0 0 0 0 0 0 0 0 0 0 0 0 0 0 0 0 127 0" result="hardAlpha"/>
<feOffset/>
<feGaussianBlur stdDeviation="9.3344"/>
<feComposite in2="hardAlpha" operator="out"/>
<feColorMatrix type="matrix" values="0 0 0 0 0 0 0 0 0 0 0 0 0 0 0 0 0 0 0.5 0"/>
<feBlend mode="normal" in2="BackgroundImageFix" result="effect1_dropShadow_126_7710"/>
<feBlend mode="normal" in="SourceGraphic" in2="effect1_dropShadow_126_7710" result="shape"/>
</filter>
<clipPath id="clip0_126_7710">
<rect x="18.668" y="18.668" width="150.284" height="219.358" rx="13.0682" fill="white"/>
</clipPath>
</defs>
</svg>
